<svg viewBox="0 0 800 520" xmlns="http://www.w3.org/2000/svg"><rect width="800" height="520" rx="24" fill="#eef9ff"/><path d="M0 145h800v375H0z" fill="#b78b63"/><path d="M0 220h800" stroke="#8e6748" stroke-width="12" opacity=".55"/><path d="M0 310h800" stroke="#7a553d" stroke-width="12" opacity=".45"/><path d="M0 402h800" stroke="#684934" stroke-width="12" opacity=".45"/><path d="M92 129C166 80 260 87 345 116C438 148 503 83 604 100C685 113 735 88 800 68V145H0V126C31 136 62 149 92 129z" fill="#5dba73"/><g stroke="#0b95d1" stroke-width="13" fill="none" stroke-linecap="round"><path d="M108 265C236 318 287 286 400 328C513 370 562 342 704 383"/><path d="M399 328C359 375 329 401 263 427"/><path d="M401 327C450 287 484 270 558 248"/><path d="M706 383l-39-2M706 383l-25-29"/></g><g stroke="#bfeeff" stroke-width="3" fill="none" opacity=".75"><path d="M82 269C235 338 295 291 401 331C526 380 576 348 718 393"/><path d="M378 316C333 359 314 390 249 421"/></g></svg>
