<svg viewBox="0 0 800 520" xmlns="http://www.w3.org/2000/svg"><defs><linearGradient id="g" x1="0" x2="1" y1="0" y2="1"><stop stop-color="#e9f8ff"/><stop offset="1" stop-color="#b9e5fb"/></linearGradient></defs><rect width="800" height="520" rx="24" fill="url(#g)"/><path d="M0 388C145 319 198 355 328 292C493 213 617 249 800 142V520H0z" fill="#56b96f"/><path d="M0 441C141 369 230 402 356 334C508 252 634 286 800 190V520H0z" fill="#2796d1"/><path d="M0 482C162 405 239 466 389 393C532 323 662 341 800 271" fill="none" stroke="#fff" stroke-width="9" opacity=".7"/><path d="M52 84C185 148 230 70 348 134C471 201 544 117 720 179" fill="none" stroke="#0b5fb3" stroke-width="7" opacity=".35"/><circle cx="185" cy="350" r="75" fill="#7b36f0" opacity=".45"/><circle cx="118" cy="403" r="62" fill="#f24168" opacity=".45"/></svg>
