<svg viewBox="0 0 800 520" xmlns="http://www.w3.org/2000/svg"><rect width="800" height="520" rx="24" fill="#eaf8ff"/><path d="M0 410C155 306 286 370 424 292C554 219 650 235 800 155V520H0z" fill="#0f91d1"/><path d="M0 453C175 356 303 438 465 344C603 263 687 277 800 220V520H0z" fill="#74d8ff" opacity=".75"/><path d="M510 245C601 189 693 191 800 137V520H607C536 414 488 316 510 245z" fill="#57ba6d"/><g stroke="#fff" stroke-width="7" fill="none" opacity=".85"><path d="M80 459C227 382 322 442 486 351C589 293 676 300 783 244"/><path d="M38 406C190 320 303 382 441 302C551 239 647 247 771 181"/><path d="M155 500C286 444 392 491 543 411C651 354 723 362 791 329"/></g><g fill="#0b5fb3" opacity=".55"><path d="M287 404l42-20-11 15 44 8-47 2 8 16z"/><path d="M447 322l42-20-11 15 44 8-47 2 8 16z"/></g></svg>
